<svg xmlns="http://www.w3.org/2000/svg" xmlns:xlink="http://www.w3.org/1999/xlink" viewBox="0,0,256,256" width="64px" height="64px"><g fill="#023b99" fill-rule="nonzero" stroke="none" stroke-width="1" stroke-linecap="butt" stroke-linejoin="miter" stroke-miterlimit="10" stroke-dasharray="" stroke-dashoffset="0" font-family="none" font-weight="none" font-size="none" text-anchor="none" style="mix-blend-mode: normal"><g transform="scale(4,4)"><path d="M9,10c-2.209,0 -4,1.791 -4,4v34c0,2.209 1.791,4 4,4h26.78906l-0.78906,10l11.86523,-10h8.13477c2.209,0 4,-1.791 4,-4v-34c0,-2.209 -1.791,-4 -4,-4zM32,17c2.209,0 4,1.791 4,4c0,2.209 -1.791,4 -4,4c-2.209,0 -4,-1.791 -4,-4c0,-2.209 1.791,-4 4,-4zM31,29h4v14h-6v-12z"></path></g></g></svg>